<svg width="25" height="24" viewBox="0 0 25 24" fill="none" xmlns="http://www.w3.org/2000/svg">
<path d="M12.9817 2.16094C16.1879 2.16094 16.5676 2.175 17.8286 2.23125C19.0004 2.28281 19.6333 2.47969 20.0551 2.64375C20.6129 2.85938 21.0161 3.12188 21.4333 3.53906C21.8551 3.96094 22.1129 4.35938 22.3286 4.91719C22.4926 5.33906 22.6895 5.97656 22.7411 7.14375C22.7973 8.40937 22.8114 8.78906 22.8114 11.9906C22.8114 15.1969 22.7973 15.5766 22.7411 16.8375C22.6895 18.0094 22.4926 18.6422 22.3286 19.0641C22.1129 19.6219 21.8504 20.025 21.4333 20.4422C21.0114 20.8641 20.6129 21.1219 20.0551 21.3375C19.6333 21.5016 18.9958 21.6984 17.8286 21.75C16.5629 21.8062 16.1833 21.8203 12.9817 21.8203C9.77544 21.8203 9.39575 21.8062 8.13482 21.75C6.96294 21.6984 6.33013 21.5016 5.90825 21.3375C5.35044 21.1219 4.94731 20.8594 4.53013 20.4422C4.10825 20.0203 3.85044 19.6219 3.63481 19.0641C3.47075 18.6422 3.27388 18.0047 3.22231 16.8375C3.16606 15.5719 3.152 15.1922 3.152 11.9906C3.152 8.78438 3.16606 8.40469 3.22231 7.14375C3.27388 5.97187 3.47075 5.33906 3.63481 4.91719C3.85044 4.35938 4.11294 3.95625 4.53013 3.53906C4.952 3.11719 5.35044 2.85938 5.90825 2.64375C6.33013 2.47969 6.96763 2.28281 8.13482 2.23125C9.39575 2.175 9.77544 2.16094 12.9817 2.16094ZM12.9817 0C9.72388 0 9.31606 0.0140625 8.03638 0.0703125C6.76138 0.126563 5.88481 0.332812 5.12544 0.628125C4.33325 0.9375 3.66294 1.34531 2.99731 2.01562C2.327 2.68125 1.91919 3.35156 1.60981 4.13906C1.3145 4.90313 1.10825 5.775 1.052 7.05C0.995752 8.33437 0.981689 8.74219 0.981689 12C0.981689 15.2578 0.995752 15.6656 1.052 16.9453C1.10825 18.2203 1.3145 19.0969 1.60981 19.8563C1.91919 20.6484 2.327 21.3188 2.99731 21.9844C3.66294 22.65 4.33325 23.0625 5.12075 23.3672C5.88481 23.6625 6.75669 23.8687 8.03169 23.925C9.31138 23.9812 9.71919 23.9953 12.977 23.9953C16.2348 23.9953 16.6426 23.9812 17.9223 23.925C19.1973 23.8687 20.0739 23.6625 20.8333 23.3672C21.6208 23.0625 22.2911 22.65 22.9567 21.9844C23.6223 21.3188 24.0348 20.6484 24.3395 19.8609C24.6348 19.0969 24.8411 18.225 24.8973 16.95C24.9536 15.6703 24.9676 15.2625 24.9676 12.0047C24.9676 8.74688 24.9536 8.33906 24.8973 7.05938C24.8411 5.78438 24.6348 4.90781 24.3395 4.14844C24.0442 3.35156 23.6364 2.68125 22.9661 2.01562C22.3004 1.35 21.6301 0.9375 20.8426 0.632812C20.0786 0.3375 19.2067 0.13125 17.9317 0.075C16.6473 0.0140625 16.2395 0 12.9817 0Z" fill="white"/>
<path d="M12.9817 5.83594C9.57856 5.83594 6.81763 8.59688 6.81763 12C6.81763 15.4031 9.57856 18.1641 12.9817 18.1641C16.3848 18.1641 19.1458 15.4031 19.1458 12C19.1458 8.59688 16.3848 5.83594 12.9817 5.83594ZM12.9817 15.9984C10.7739 15.9984 8.98325 14.2078 8.98325 12C8.98325 9.79219 10.7739 8.00156 12.9817 8.00156C15.1895 8.00156 16.9801 9.79219 16.9801 12C16.9801 14.2078 15.1895 15.9984 12.9817 15.9984Z" fill="white"/>
<path d="M20.8286 5.59214C20.8286 6.38902 20.1817 7.0312 19.3895 7.0312C18.5926 7.0312 17.9504 6.38433 17.9504 5.59214C17.9504 4.79526 18.5973 4.15308 19.3895 4.15308C20.1817 4.15308 20.8286 4.79995 20.8286 5.59214Z" fill="white"/>
</svg>
