<svg width="20" height="20" viewBox="0 0 20 20" fill="none" xmlns="http://www.w3.org/2000/svg">
<g clip-path="url(#clip0_59_3215)">
<path d="M15 8.33342C15 6.5653 14.2976 4.86961 13.0474 3.61937C11.7972 2.36913 10.1015 1.66675 8.33335 1.66675C6.56524 1.66675 4.86955 2.36913 3.61931 3.61937C2.36907 4.86961 1.66669 6.5653 1.66669 8.33342C1.66669 12.4942 6.28252 16.8276 7.83252 18.1659C7.977 18.2743 8.15276 18.3328 8.33335 18.3326M15 18.3334V15.8334M12.5 18.3333C12.279 18.3333 12.067 18.2455 11.9108 18.0893C11.7545 17.933 11.6667 17.721 11.6667 17.5V14.1667C11.6667 14.0295 11.7005 13.8945 11.7652 13.7735C11.8299 13.6526 11.9234 13.5495 12.0375 13.4733L14.5375 11.8067C14.6745 11.7153 14.8354 11.6665 15 11.6665C15.1646 11.6665 15.3256 11.7153 15.4625 11.8067L17.9625 13.4733C18.0766 13.5495 18.1702 13.6526 18.2348 13.7735C18.2995 13.8945 18.3334 14.0295 18.3334 14.1667V17.5C18.3334 17.721 18.2456 17.933 18.0893 18.0893C17.933 18.2455 17.721 18.3333 17.5 18.3333H12.5ZM10.8334 8.33342C10.8334 9.71413 9.71407 10.8334 8.33335 10.8334C6.95264 10.8334 5.83335 9.71413 5.83335 8.33342C5.83335 6.9527 6.95264 5.83341 8.33335 5.83341C9.71407 5.83341 10.8334 6.9527 10.8334 8.33342Z" stroke="#00AA13" stroke-width="2" stroke-linecap="round" stroke-linejoin="round"/>
</g>
<defs>
<clipPath id="clip0_59_3215">
<rect width="20" height="20" fill="white"/>
</clipPath>
</defs>
</svg>
