<svg width="181" height="41" viewBox="0 0 181 41" fill="none" xmlns="http://www.w3.org/2000/svg">
<path d="M11.7811 0.326026L0.330067 11.6368C-0.112364 12.0738 -0.109664 12.7832 0.33608 13.2169L11.3143 23.8989C11.7553 24.328 12.4643 24.3254 12.902 23.893L35.1674 1.90022C35.8773 1.19899 35.3745 0 34.3705 0H12.5779C12.279 0 11.9924 0.117275 11.7811 0.326026Z" fill="#00AA13"/>
<path d="M23.8982 16.5563L1.07533 39.0998C0.365413 39.801 0.868207 41 1.87218 41H24.2283C24.5271 41 24.8138 40.8827 25.0251 40.674L36.6699 29.1717C37.11 28.737 37.11 28.0322 36.6699 27.5975L25.4919 16.5563C25.0518 16.1216 24.3383 16.1216 23.8982 16.5563Z" fill="#00AA13"/>
<path d="M57.24 32.32C56.3013 32.32 55.3627 32.2453 54.424 32.096C53.4853 31.968 52.6 31.7653 51.768 31.488C50.936 31.1893 50.1893 30.8267 49.528 30.4C49.144 30.144 48.8773 29.8347 48.728 29.472C48.5787 29.1093 48.5253 28.7573 48.568 28.416C48.632 28.0533 48.7707 27.744 48.984 27.488C49.2187 27.2107 49.5067 27.04 49.848 26.976C50.1893 26.912 50.5627 27.008 50.968 27.264C51.9067 27.8187 52.8987 28.224 53.944 28.48C54.9893 28.736 56.088 28.864 57.24 28.864C58.9253 28.864 60.152 28.5867 60.92 28.032C61.688 27.456 62.072 26.72 62.072 25.824C62.072 25.0773 61.7947 24.4907 61.24 24.064C60.7067 23.6373 59.7787 23.2853 58.456 23.008L54.936 22.272C52.9093 21.8453 51.3947 21.1307 50.392 20.128C49.4107 19.104 48.92 17.76 48.92 16.096C48.92 15.0507 49.1333 14.1013 49.56 13.248C49.9867 12.3947 50.584 11.6587 51.352 11.04C52.1413 10.4213 53.0693 9.952 54.136 9.632C55.224 9.29067 56.4187 9.12 57.72 9.12C59 9.12 60.216 9.28 61.368 9.6C62.52 9.92 63.5547 10.3893 64.472 11.008C64.8133 11.2427 65.0373 11.5307 65.144 11.872C65.272 12.2133 65.304 12.5547 65.24 12.896C65.176 13.216 65.0267 13.4933 64.792 13.728C64.5573 13.9627 64.2587 14.1013 63.896 14.144C63.5547 14.1867 63.16 14.08 62.712 13.824C61.9227 13.376 61.1227 13.056 60.312 12.864C59.5013 12.672 58.6267 12.576 57.688 12.576C56.7067 12.576 55.864 12.7147 55.16 12.992C54.456 13.2693 53.912 13.664 53.528 14.176C53.1653 14.6667 52.984 15.2533 52.984 15.936C52.984 16.704 53.24 17.3227 53.752 17.792C54.264 18.24 55.1387 18.592 56.376 18.848L59.864 19.584C61.976 20.032 63.544 20.736 64.568 21.696C65.6133 22.656 66.136 23.936 66.136 25.536C66.136 26.56 65.9227 27.488 65.496 28.32C65.0907 29.152 64.4933 29.8667 63.704 30.464C62.936 31.0613 62.008 31.52 60.92 31.84C59.832 32.16 58.6053 32.32 57.24 32.32Z" fill="#00AA13"/>
<path d="M71.2515 32.224C70.6115 32.224 70.1208 32.032 69.7795 31.648C69.4382 31.264 69.2675 30.7307 69.2675 30.048V18.304C69.2675 17.6 69.4382 17.0667 69.7795 16.704C70.1208 16.32 70.6115 16.128 71.2515 16.128C71.8915 16.128 72.3822 16.32 72.7235 16.704C73.0862 17.0667 73.2675 17.6 73.2675 18.304V30.048C73.2675 30.7307 73.0968 31.264 72.7555 31.648C72.4142 32.032 71.9128 32.224 71.2515 32.224ZM71.2515 13.152C70.5048 13.152 69.9182 12.9707 69.4915 12.608C69.0862 12.224 68.8835 11.7013 68.8835 11.04C68.8835 10.3573 69.0862 9.83467 69.4915 9.472C69.9182 9.10933 70.5048 8.928 71.2515 8.928C72.0195 8.928 72.6062 9.10933 73.0115 9.472C73.4168 9.83467 73.6195 10.3573 73.6195 11.04C73.6195 11.7013 73.4168 12.224 73.0115 12.608C72.6062 12.9707 72.0195 13.152 71.2515 13.152Z" fill="#00AA13"/>
<path d="M79.4078 38.016C78.7678 38.016 78.2771 37.8453 77.9358 37.504C77.5944 37.1627 77.4238 36.6613 77.4238 36V18.112C77.4238 17.4507 77.5944 16.9493 77.9358 16.608C78.2771 16.2667 78.7571 16.096 79.3757 16.096C80.0157 16.096 80.5064 16.2667 80.8477 16.608C81.1891 16.9493 81.3597 17.4507 81.3597 18.112V20.608L81.0078 19.648C81.3278 18.56 81.9784 17.6853 82.9597 17.024C83.9624 16.3627 85.1251 16.032 86.4478 16.032C87.8131 16.032 89.0078 16.3627 90.0318 17.024C91.0771 17.6853 91.8878 18.624 92.4638 19.84C93.0397 21.0347 93.3278 22.4747 93.3278 24.16C93.3278 25.824 93.0397 27.2747 92.4638 28.512C91.8878 29.728 91.0878 30.6667 90.0638 31.328C89.0397 31.9893 87.8344 32.32 86.4478 32.32C85.1464 32.32 84.0051 32 83.0238 31.36C82.0424 30.6987 81.3811 29.8453 81.0397 28.8H81.4238V36C81.4238 36.6613 81.2424 37.1627 80.8798 37.504C80.5384 37.8453 80.0478 38.016 79.4078 38.016ZM85.3278 29.28C86.1171 29.28 86.8104 29.088 87.4078 28.704C88.0051 28.32 88.4638 27.7547 88.7838 27.008C89.1251 26.24 89.2958 25.2907 89.2958 24.16C89.2958 22.4533 88.9331 21.184 88.2077 20.352C87.4824 19.4987 86.5224 19.072 85.3278 19.072C84.5384 19.072 83.8451 19.264 83.2477 19.648C82.6504 20.0107 82.1811 20.576 81.8398 21.344C81.5198 22.0907 81.3597 23.0293 81.3597 24.16C81.3597 25.8453 81.7224 27.1253 82.4478 28C83.1731 28.8533 84.1331 29.28 85.3278 29.28Z" fill="#00AA13"/>
<path d="M99.0752 32C98.4139 32 97.9019 31.8187 97.5393 31.456C97.1766 31.072 96.9952 30.5493 96.9952 29.888V11.424C96.9952 10.7413 97.1659 10.2293 97.5072 9.888C97.8699 9.52533 98.3819 9.344 99.0433 9.344C99.7046 9.344 100.206 9.52533 100.547 9.888C100.91 10.2293 101.091 10.7413 101.091 11.424V28.512H110.371C110.947 28.512 111.385 28.6613 111.683 28.96C112.003 29.2587 112.163 29.6853 112.163 30.24C112.163 30.7947 112.003 31.232 111.683 31.552C111.385 31.8507 110.947 32 110.371 32H99.0752Z" fill="#00AA13"/>
<path d="M119.732 32.32C118.601 32.32 117.588 32.1067 116.692 31.68C115.817 31.232 115.124 30.6347 114.612 29.888C114.121 29.1413 113.876 28.2987 113.876 27.36C113.876 26.208 114.175 25.3013 114.772 24.64C115.369 23.9573 116.34 23.4667 117.684 23.168C119.028 22.8693 120.831 22.72 123.092 22.72H124.692V25.024H123.124C121.801 25.024 120.745 25.088 119.956 25.216C119.167 25.344 118.601 25.568 118.26 25.888C117.94 26.1867 117.78 26.6133 117.78 27.168C117.78 27.872 118.025 28.448 118.516 28.896C119.007 29.344 119.689 29.568 120.564 29.568C121.268 29.568 121.887 29.408 122.42 29.088C122.975 28.7467 123.412 28.288 123.732 27.712C124.052 27.136 124.212 26.4747 124.212 25.728V22.048C124.212 20.9813 123.977 20.2133 123.508 19.744C123.039 19.2747 122.249 19.04 121.14 19.04C120.521 19.04 119.849 19.1147 119.124 19.264C118.42 19.4133 117.673 19.6693 116.884 20.032C116.479 20.224 116.116 20.2773 115.796 20.192C115.497 20.1067 115.263 19.936 115.092 19.68C114.921 19.4027 114.836 19.104 114.836 18.784C114.836 18.464 114.921 18.1547 115.092 17.856C115.263 17.536 115.551 17.3013 115.956 17.152C116.937 16.7467 117.876 16.4587 118.772 16.288C119.689 16.1173 120.521 16.032 121.268 16.032C122.804 16.032 124.063 16.2667 125.044 16.736C126.047 17.2053 126.793 17.92 127.284 18.88C127.775 19.8187 128.02 21.0347 128.02 22.528V30.208C128.02 30.8693 127.86 31.3813 127.54 31.744C127.22 32.0853 126.761 32.256 126.164 32.256C125.567 32.256 125.097 32.0853 124.756 31.744C124.436 31.3813 124.276 30.8693 124.276 30.208V28.672H124.532C124.383 29.4187 124.084 30.0693 123.636 30.624C123.209 31.1573 122.665 31.5733 122.004 31.872C121.343 32.1707 120.585 32.32 119.732 32.32Z" fill="#00AA13"/>
<path d="M134.064 38.016C133.424 38.016 132.933 37.8453 132.592 37.504C132.251 37.1627 132.08 36.6613 132.08 36V18.112C132.08 17.4507 132.251 16.9493 132.592 16.608C132.933 16.2667 133.413 16.096 134.032 16.096C134.672 16.096 135.163 16.2667 135.504 16.608C135.845 16.9493 136.016 17.4507 136.016 18.112V20.608L135.664 19.648C135.984 18.56 136.635 17.6853 137.616 17.024C138.619 16.3627 139.781 16.032 141.104 16.032C142.469 16.032 143.664 16.3627 144.688 17.024C145.733 17.6853 146.544 18.624 147.12 19.84C147.696 21.0347 147.984 22.4747 147.984 24.16C147.984 25.824 147.696 27.2747 147.12 28.512C146.544 29.728 145.744 30.6667 144.72 31.328C143.696 31.9893 142.491 32.32 141.104 32.32C139.803 32.32 138.661 32 137.68 31.36C136.699 30.6987 136.037 29.8453 135.696 28.8H136.08V36C136.08 36.6613 135.899 37.1627 135.536 37.504C135.195 37.8453 134.704 38.016 134.064 38.016ZM139.984 29.28C140.773 29.28 141.467 29.088 142.064 28.704C142.661 28.32 143.12 27.7547 143.44 27.008C143.781 26.24 143.952 25.2907 143.952 24.16C143.952 22.4533 143.589 21.184 142.864 20.352C142.139 19.4987 141.179 19.072 139.984 19.072C139.195 19.072 138.501 19.264 137.904 19.648C137.307 20.0107 136.837 20.576 136.496 21.344C136.176 22.0907 136.016 23.0293 136.016 24.16C136.016 25.8453 136.379 27.1253 137.104 28C137.829 28.8533 138.789 29.28 139.984 29.28Z" fill="#00AA13"/>
<path d="M158.404 32.32C156.782 32.32 155.374 31.9893 154.18 31.328C152.985 30.6667 152.057 29.728 151.396 28.512C150.734 27.2747 150.404 25.824 150.404 24.16C150.404 22.9013 150.585 21.7813 150.947 20.8C151.331 19.7973 151.876 18.944 152.579 18.24C153.283 17.5147 154.126 16.9707 155.107 16.608C156.089 16.224 157.188 16.032 158.404 16.032C160.025 16.032 161.433 16.3627 162.628 17.024C163.822 17.6853 164.75 18.624 165.411 19.84C166.073 21.056 166.404 22.496 166.404 24.16C166.404 25.4187 166.212 26.5493 165.827 27.552C165.465 28.5547 164.932 29.4187 164.228 30.144C163.524 30.848 162.681 31.392 161.7 31.776C160.718 32.1387 159.62 32.32 158.404 32.32ZM158.404 29.28C159.193 29.28 159.886 29.088 160.484 28.704C161.081 28.32 161.539 27.7547 161.859 27.008C162.201 26.24 162.372 25.2907 162.372 24.16C162.372 22.4533 162.009 21.184 161.284 20.352C160.558 19.4987 159.598 19.072 158.404 19.072C157.614 19.072 156.921 19.264 156.324 19.648C155.726 20.0107 155.257 20.576 154.915 21.344C154.595 22.0907 154.436 23.0293 154.436 24.16C154.436 25.8453 154.798 27.1253 155.523 28C156.249 28.8533 157.209 29.28 158.404 29.28Z" fill="#00AA13"/>
<path d="M171.753 32.256C171.092 32.256 170.58 32.0853 170.217 31.744C169.876 31.3813 169.705 30.8693 169.705 30.208V18.112C169.705 17.4507 169.876 16.9493 170.217 16.608C170.558 16.2667 171.038 16.096 171.657 16.096C172.276 16.096 172.756 16.2667 173.097 16.608C173.438 16.9493 173.609 17.4507 173.609 18.112V20.128H173.289C173.588 18.848 174.174 17.8773 175.049 17.216C175.924 16.5547 177.086 16.16 178.537 16.032C178.985 15.9893 179.337 16.1067 179.593 16.384C179.87 16.64 180.03 17.0453 180.073 17.6C180.116 18.1333 179.988 18.5707 179.689 18.912C179.412 19.232 178.985 19.424 178.409 19.488L177.705 19.552C176.404 19.68 175.422 20.0853 174.761 20.768C174.1 21.4293 173.769 22.368 173.769 23.584V30.208C173.769 30.8693 173.598 31.3813 173.257 31.744C172.916 32.0853 172.414 32.256 171.753 32.256Z" fill="#00AA13"/>
</svg>
