<svg width="158" height="35" viewBox="0 0 158 35" fill="none" xmlns="http://www.w3.org/2000/svg">
<path d="M10.3365 0.278315L0.289595 9.93388C-0.098586 10.3069 -0.0962173 10.9125 0.294871 11.2827L9.92699 20.4015C10.3139 20.7678 10.9359 20.7656 11.32 20.3965L30.8553 1.62214C31.4781 1.02353 31.037 0 30.1561 0H11.0356C10.7734 0 10.5219 0.100113 10.3365 0.278315Z" fill="white"/>
<path d="M20.9679 14.1334L0.943478 33.3779C0.320607 33.9765 0.76175 35 1.64262 35H21.2575C21.5197 35 21.7712 34.8999 21.9566 34.7217L32.1736 24.9027C32.5597 24.5316 32.5597 23.9299 32.1736 23.5589L22.3662 14.1334C21.98 13.7624 21.354 13.7624 20.9679 14.1334Z" fill="white"/>
<path d="M50.2214 27.5902C49.3978 27.5902 48.5743 27.5265 47.7507 27.399C46.9271 27.2898 46.1503 27.1167 45.4204 26.88C44.6904 26.625 44.0353 26.3154 43.455 25.9512C43.1181 25.7327 42.8841 25.4686 42.7531 25.159C42.6221 24.8494 42.5753 24.5489 42.6127 24.2576C42.6689 23.948 42.7906 23.6839 42.9777 23.4654C43.1836 23.2286 43.4363 23.0829 43.7358 23.0283C44.0353 22.9737 44.3628 23.0556 44.7185 23.2741C45.542 23.7476 46.4124 24.0937 47.3295 24.3122C48.2467 24.5307 49.2107 24.64 50.2214 24.64C51.7001 24.64 52.7763 24.4033 53.4502 23.9298C54.124 23.438 54.4609 22.8098 54.4609 22.0449C54.4609 21.4075 54.2176 20.9067 53.7309 20.5424C53.263 20.1782 52.4488 19.8777 51.2883 19.641L48.1999 19.0127C46.4217 18.6485 45.0928 18.0384 44.2131 17.1824C43.3521 16.3083 42.9216 15.161 42.9216 13.7405C42.9216 12.8481 43.1087 12.0377 43.4831 11.3093C43.8575 10.5808 44.3815 9.95252 45.0554 9.42439C45.7479 8.89626 46.5621 8.49561 47.498 8.22244C48.4526 7.93106 49.5008 7.78537 50.6425 7.78537C51.7656 7.78537 52.8325 7.92195 53.8432 8.19512C54.854 8.46829 55.7618 8.86894 56.5666 9.39707C56.8661 9.5974 57.0627 9.84325 57.1562 10.1346C57.2685 10.426 57.2966 10.7174 57.2405 11.0088C57.1843 11.282 57.0533 11.5187 56.8474 11.719C56.6415 11.9193 56.3795 12.0377 56.0613 12.0741C55.7618 12.1106 55.4155 12.0195 55.0224 11.801C54.3299 11.4185 53.628 11.1454 52.9167 10.9815C52.2055 10.8176 51.438 10.7356 50.6145 10.7356C49.7535 10.7356 49.0141 10.854 48.3964 11.0907C47.7788 11.3275 47.3015 11.6644 46.9646 12.1015C46.6464 12.5203 46.4873 13.0211 46.4873 13.6039C46.4873 14.2595 46.7119 14.7876 47.1611 15.1883C47.6103 15.5707 48.3777 15.8712 49.4633 16.0898L52.5237 16.718C54.3767 17.1005 55.7524 17.7015 56.6509 18.521C57.568 19.3405 58.0266 20.4332 58.0266 21.799C58.0266 22.6732 57.8394 23.4654 57.4651 24.1756C57.1094 24.8859 56.5854 25.4959 55.8928 26.0059C55.219 26.5158 54.4048 26.9073 53.4502 27.1805C52.4956 27.4537 51.4193 27.5902 50.2214 27.5902Z" fill="white"/>
<path d="M62.5149 27.5083C61.9533 27.5083 61.5228 27.3444 61.2234 27.0166C60.9239 26.6888 60.7741 26.2335 60.7741 25.6507V15.6254C60.7741 15.0244 60.9239 14.5691 61.2234 14.2595C61.5228 13.9317 61.9533 13.7678 62.5149 13.7678C63.0764 13.7678 63.5069 13.9317 63.8064 14.2595C64.1246 14.5691 64.2837 15.0244 64.2837 15.6254V25.6507C64.2837 26.2335 64.1339 26.6888 63.8344 27.0166C63.535 27.3444 63.0951 27.5083 62.5149 27.5083ZM62.5149 11.2273C61.8597 11.2273 61.345 11.0725 60.9707 10.7629C60.615 10.4351 60.4372 9.98894 60.4372 9.42439C60.4372 8.84163 60.615 8.39545 60.9707 8.08585C61.345 7.77626 61.8597 7.62146 62.5149 7.62146C63.1887 7.62146 63.7034 7.77626 64.059 8.08585C64.4147 8.39545 64.5925 8.84163 64.5925 9.42439C64.5925 9.98894 64.4147 10.4351 64.059 10.7629C63.7034 11.0725 63.1887 11.2273 62.5149 11.2273Z" fill="white"/>
<path d="M69.671 32.4527C69.1095 32.4527 68.679 32.307 68.3795 32.0156C68.08 31.7242 67.9303 31.2963 67.9303 30.7317V15.4615C67.9303 14.8969 68.08 14.4689 68.3795 14.1776C68.679 13.8862 69.1001 13.7405 69.6429 13.7405C70.2045 13.7405 70.635 13.8862 70.9344 14.1776C71.2339 14.4689 71.3837 14.8969 71.3837 15.4615V17.5922L71.0748 16.7727C71.3556 15.8439 71.9265 15.0972 72.7875 14.5327C73.6672 13.9681 74.6873 13.6859 75.8478 13.6859C77.0457 13.6859 78.0939 13.9681 78.9923 14.5327C79.9095 15.0972 80.6208 15.8985 81.1261 16.9366C81.6315 17.9564 81.8842 19.1857 81.8842 20.6244C81.8842 22.0449 81.6315 23.2833 81.1261 24.3395C80.6208 25.3776 79.9188 26.1789 79.0204 26.7434C78.122 27.308 77.0644 27.5902 75.8478 27.5902C74.706 27.5902 73.7046 27.3171 72.8436 26.7707C71.9826 26.2062 71.4024 25.4777 71.1029 24.5854H71.4398V30.7317C71.4398 31.2963 71.2807 31.7242 70.9625 32.0156C70.663 32.307 70.2325 32.4527 69.671 32.4527ZM74.8651 24.9951C75.5577 24.9951 76.166 24.8312 76.6901 24.5034C77.2142 24.1756 77.6166 23.693 77.8974 23.0556C78.1968 22.4 78.3466 21.5896 78.3466 20.6244C78.3466 19.1675 78.0284 18.0839 77.392 17.3737C76.7556 16.6452 75.9133 16.281 74.8651 16.281C74.1726 16.281 73.5643 16.4449 73.0402 16.7727C72.5161 17.0823 72.1043 17.5649 71.8048 18.2205C71.524 18.8579 71.3837 19.6592 71.3837 20.6244C71.3837 22.0631 71.7019 23.1558 72.3383 23.9024C72.9747 24.6309 73.8169 24.9951 74.8651 24.9951Z" fill="white"/>
<path d="M86.9269 27.3171C86.3467 27.3171 85.8975 27.1623 85.5793 26.8527C85.2611 26.5249 85.102 26.0787 85.102 25.5141V9.7522C85.102 9.16943 85.2517 8.73236 85.5512 8.44097C85.8694 8.13138 86.3186 7.97659 86.8989 7.97659C87.4791 7.97659 87.919 8.13138 88.2184 8.44097C88.5366 8.73236 88.6957 9.16943 88.6957 9.7522V24.3395H96.8379C97.3432 24.3395 97.7269 24.467 97.989 24.722C98.2697 24.9769 98.4101 25.3411 98.4101 25.8146C98.4101 26.2881 98.2697 26.6615 97.989 26.9346C97.7269 27.1896 97.3432 27.3171 96.8379 27.3171H86.9269Z" fill="white"/>
<path d="M105.051 27.5902C104.059 27.5902 103.17 27.4081 102.384 27.0439C101.616 26.6615 101.008 26.1515 100.559 25.5141C100.128 24.8767 99.9129 24.1574 99.9129 23.3561C99.9129 22.3727 100.175 21.5987 100.699 21.0341C101.223 20.4514 102.075 20.0325 103.254 19.7776C104.433 19.5226 106.015 19.3951 107.999 19.3951H109.403V21.362H108.027C106.866 21.362 105.94 21.4166 105.247 21.5259C104.555 21.6351 104.059 21.8263 103.759 22.0995C103.479 22.3545 103.338 22.7187 103.338 23.1922C103.338 23.7932 103.553 24.2849 103.984 24.6673C104.414 25.0498 105.013 25.241 105.781 25.241C106.398 25.241 106.941 25.1044 107.409 24.8312C107.896 24.5398 108.28 24.1483 108.56 23.6566C108.841 23.1649 108.981 22.6003 108.981 21.9629V18.8215C108.981 17.9109 108.776 17.2553 108.364 16.8546C107.952 16.454 107.259 16.2537 106.286 16.2537C105.743 16.2537 105.154 16.3174 104.517 16.4449C103.9 16.5724 103.245 16.7909 102.552 17.1005C102.196 17.2644 101.878 17.3099 101.597 17.2371C101.335 17.1642 101.13 17.0185 100.98 16.8C100.83 16.5633 100.755 16.3083 100.755 16.0351C100.755 15.762 100.83 15.4979 100.98 15.2429C101.13 14.9698 101.382 14.7694 101.738 14.642C102.599 14.2959 103.422 14.0501 104.209 13.9044C105.013 13.7587 105.743 13.6859 106.398 13.6859C107.746 13.6859 108.85 13.8862 109.711 14.2868C110.591 14.6875 111.246 15.2976 111.677 16.1171C112.107 16.9184 112.323 17.9564 112.323 19.2312V25.7873C112.323 26.3519 112.182 26.7889 111.901 27.0985C111.621 27.3899 111.218 27.5356 110.694 27.5356C110.17 27.5356 109.758 27.3899 109.459 27.0985C109.178 26.7889 109.038 26.3519 109.038 25.7873V24.4761H109.262C109.131 25.1135 108.869 25.6689 108.476 26.1424C108.102 26.5977 107.624 26.9528 107.044 27.2078C106.464 27.4628 105.8 27.5902 105.051 27.5902Z" fill="white"/>
<path d="M117.625 32.4527C117.064 32.4527 116.633 32.307 116.334 32.0156C116.034 31.7242 115.885 31.2963 115.885 30.7317V15.4615C115.885 14.8969 116.034 14.4689 116.334 14.1776C116.633 13.8862 117.055 13.7405 117.597 13.7405C118.159 13.7405 118.589 13.8862 118.889 14.1776C119.188 14.4689 119.338 14.8969 119.338 15.4615V17.5922L119.029 16.7727C119.31 15.8439 119.881 15.0972 120.742 14.5327C121.622 13.9681 122.642 13.6859 123.802 13.6859C125 13.6859 126.048 13.9681 126.947 14.5327C127.864 15.0972 128.575 15.8985 129.081 16.9366C129.586 17.9564 129.839 19.1857 129.839 20.6244C129.839 22.0449 129.586 23.2833 129.081 24.3395C128.575 25.3776 127.873 26.1789 126.975 26.7434C126.076 27.308 125.019 27.5902 123.802 27.5902C122.66 27.5902 121.659 27.3171 120.798 26.7707C119.937 26.2062 119.357 25.4777 119.057 24.5854H119.394V30.7317C119.394 31.2963 119.235 31.7242 118.917 32.0156C118.618 32.307 118.187 32.4527 117.625 32.4527ZM122.82 24.9951C123.512 24.9951 124.12 24.8312 124.645 24.5034C125.169 24.1756 125.571 23.693 125.852 23.0556C126.151 22.4 126.301 21.5896 126.301 20.6244C126.301 19.1675 125.983 18.0839 125.346 17.3737C124.71 16.6452 123.868 16.281 122.82 16.281C122.127 16.281 121.519 16.4449 120.995 16.7727C120.471 17.0823 120.059 17.5649 119.759 18.2205C119.479 18.8579 119.338 19.6592 119.338 20.6244C119.338 22.0631 119.656 23.1558 120.293 23.9024C120.929 24.6309 121.771 24.9951 122.82 24.9951Z" fill="white"/>
<path d="M138.981 27.5902C137.558 27.5902 136.323 27.308 135.274 26.7434C134.226 26.1789 133.412 25.3776 132.832 24.3395C132.252 23.2833 131.961 22.0449 131.961 20.6244C131.961 19.5499 132.121 18.5938 132.439 17.7561C132.776 16.9002 133.253 16.1717 133.871 15.5707C134.488 14.9515 135.228 14.4872 136.089 14.1776C136.95 13.8498 137.914 13.6859 138.981 13.6859C140.403 13.6859 141.638 13.9681 142.687 14.5327C143.735 15.0972 144.549 15.8985 145.129 16.9366C145.709 17.9746 146 19.2039 146 20.6244C146 21.6989 145.831 22.6641 145.494 23.52C145.176 24.3759 144.708 25.1135 144.09 25.7327C143.473 26.3337 142.733 26.798 141.872 27.1259C141.011 27.4354 140.047 27.5902 138.981 27.5902ZM138.981 24.9951C139.673 24.9951 140.281 24.8312 140.805 24.5034C141.33 24.1756 141.732 23.693 142.013 23.0556C142.312 22.4 142.462 21.5896 142.462 20.6244C142.462 19.1675 142.144 18.0839 141.507 17.3737C140.871 16.6452 140.029 16.281 138.981 16.281C138.288 16.281 137.68 16.4449 137.156 16.7727C136.631 17.0823 136.22 17.5649 135.92 18.2205C135.639 18.8579 135.499 19.6592 135.499 20.6244C135.499 22.0631 135.817 23.1558 136.454 23.9024C137.09 24.6309 137.932 24.9951 138.981 24.9951Z" fill="white"/>
<path d="M150.693 27.5356C150.113 27.5356 149.664 27.3899 149.345 27.0985C149.046 26.7889 148.896 26.3519 148.896 25.7873V15.4615C148.896 14.8969 149.046 14.4689 149.345 14.1776C149.645 13.8862 150.066 13.7405 150.609 13.7405C151.152 13.7405 151.573 13.8862 151.872 14.1776C152.172 14.4689 152.322 14.8969 152.322 15.4615V17.1824H152.041C152.303 16.0898 152.818 15.2611 153.585 14.6966C154.352 14.132 155.373 13.7951 156.645 13.6859C157.038 13.6494 157.347 13.7496 157.572 13.9863C157.815 14.2049 157.956 14.5509 157.993 15.0244C158.03 15.4797 157.918 15.853 157.656 16.1444C157.413 16.4176 157.038 16.5815 156.533 16.6361L155.915 16.6907C154.774 16.8 153.913 17.146 153.332 17.7288C152.752 18.2933 152.462 19.0946 152.462 20.1327V25.7873C152.462 26.3519 152.312 26.7889 152.013 27.0985C151.713 27.3899 151.273 27.5356 150.693 27.5356Z" fill="white"/>
</svg>
